<?xml version="1.0" standalone="no"?>
<!DOCTYPE svg PUBLIC "-//W3C//DTD SVG 20010904//EN"
 "http://www.w3.org/TR/2001/REC-SVG-20010904/DTD/svg10.dtd">
<svg version="1.0" xmlns="http://www.w3.org/2000/svg"
 width="260.000000pt" height="260.000000pt" viewBox="0 0 260.000000 260.000000"
 preserveAspectRatio="xMidYMid meet">
<metadata>
Created by potrace 1.11, written by Peter Selinger 2001-2013
</metadata>
<g transform="translate(0.000000,260.000000) scale(0.100000,-0.100000)"
fill="#000000" stroke="none">
<path d="M276 2418 c-3 -13 -6 -127 -6 -254 0 -192 3 -234 15 -244 9 -8 51
-12 115 -12 l100 0 0 -610 0 -609 -84 -249 c-72 -214 -82 -252 -71 -267 13
-17 63 -18 936 -18 970 0 957 -1 942 43 -3 9 -48 124 -100 255 l-95 237 0 553
c1 303 1 577 1 609 l1 56 136 0 c105 0 140 4 151 14 11 12 14 61 14 256 0 133
-3 246 -6 252 -9 15 -348 13 -363 -2 -8 -8 -12 -56 -12 -150 l0 -138 -27 -1
c-50 -2 -116 1 -121 6 -2 2 -4 57 -3 122 0 65 -2 130 -5 146 l-6 27 -178 0
c-127 0 -181 -3 -186 -12 -4 -6 -8 -71 -8 -144 -1 -73 -4 -136 -9 -140 -8 -8
-205 -9 -213 -1 -3 3 -5 65 -5 138 0 78 -5 139 -11 146 -8 10 -57 13 -185 13
-163 0 -174 -1 -181 -19 -4 -11 -7 -79 -6 -150 1 -113 -1 -131 -15 -132 -19
-1 -123 -1 -132 0 -4 1 -6 63 -6 139 0 77 -3 144 -7 150 -5 8 -61 12 -185 12
-177 0 -179 0 -185 -22z m1110 -699 c3 -5 13 -9 23 -9 30 0 99 -68 128 -128
l28 -57 3 -328 c2 -241 0 -333 -9 -343 -17 -20 -491 -21 -511 0 -11 10 -13 75
-13 327 1 173 5 330 9 349 13 57 53 117 101 151 25 18 53 35 63 37 82 18 167
19 178 1z"/>
<path d="M1240 1647 c-46 -15 -103 -74 -118 -123 -8 -29 -12 -129 -12 -323 l0
-281 23 -1 c88 -3 348 -1 353 3 3 3 5 133 6 289 0 306 -3 332 -55 387 -47 50
-128 70 -197 49z"/>
</g>
</svg>
